<svg width="92" height="102" viewBox="0 0 92 102" fill="none" xmlns="http://www.w3.org/2000/svg">
<path fill-rule="evenodd" clip-rule="evenodd" d="M46.854 84.0141L46.8544 84.0133C46.8569 84.0082 46.8594 84.0031 46.862 83.998C46.8593 84.0033 46.8566 84.0087 46.854 84.0141ZM83.8908 84.0174L83.8928 84.0133C83.8954 84.0082 83.8979 84.0031 83.9004 83.998C83.8972 84.0044 83.894 84.0109 83.8908 84.0174ZM84.6991 26.7789C84.6991 26.7788 84.6991 26.7788 84.6991 26.7788C84.6984 26.7768 84.6977 26.7747 84.697 26.7727C84.6977 26.7747 84.6984 26.7768 84.6991 26.7789ZM83.9951 25.0408C83.9951 25.0408 83.9951 25.0408 83.9951 25.0408C83.9931 25.0367 83.9911 25.0326 83.9891 25.0284C83.9911 25.0326 83.9931 25.0367 83.9951 25.0408ZM14.7791 21.0317L15.5282 22.0814C18.1375 27.3872 18.1614 33.4547 15.6001 38.7744L15.4892 38.8853L10.8387 47.7877L10.8315 47.8021C8.60281 52.241 8.60281 56.6039 10.8315 61.0428L10.8387 61.0572L15.9084 70.762H15.9713C18.0139 75.5687 18.0139 80.9889 15.9713 85.7956H15.8971L8.03765 101.146L4.36792 99.1803L13.2011 82.0661H12.7133C13.7005 78.5768 13.3217 75.0694 11.5769 71.5941L11.5697 71.5798L7.06899 62.9642C4.35286 57.5354 4.35527 51.2936 7.07621 45.8662L7.28832 45.4432V45.3388L11.5669 37.2706L11.5769 37.2507C13.8056 32.8118 13.8056 28.3203 11.5769 23.8814L11.5374 23.8028L10.7533 22.5329L6.09001 12.9976L0.865234 15.4622L3.09246 0.317017L15.9441 8.34929L9.92889 11.2532L14.7791 21.0317ZM52.9304 23.0492H53.0105C55.1694 28.1162 55.0454 33.7755 52.6385 38.7744L52.5277 38.8853L47.8772 47.7877L47.8699 47.8021C45.6413 52.241 45.6413 56.6039 47.8699 61.0428L47.8772 61.0572L52.9468 70.762H53.0098C55.0524 75.5687 55.0524 80.9889 53.0098 85.7956H52.9356L45.0761 101.146L41.4064 99.1803L50.2395 82.0661H49.7517C50.739 78.5768 50.3602 75.0694 48.6154 71.5941L48.6081 71.5798L44.1075 62.9642C41.3913 57.5354 41.3937 51.2936 44.1147 45.8662L44.3268 45.4432V45.3388L48.6054 37.2706L48.6154 37.2507C50.3602 33.7755 50.739 30.268 49.7517 26.7788H50.2541L43.0835 13.0189L37.9037 15.4622L40.1309 0.317017L52.9826 8.34929L46.9509 11.2611L52.9304 23.0492ZM89.9689 23.0492H90.049C92.2079 28.1162 92.0839 33.7755 89.677 38.7744L89.5661 38.8853L84.9156 47.7877L84.9084 47.8021C82.6797 52.241 82.6797 56.6039 84.9084 61.0428L84.9156 61.0572L89.9853 70.762H90.0482C92.0909 75.5687 92.0909 80.9889 90.0482 85.7956H89.9741L82.1146 101.146L78.4448 99.1803L87.278 82.0661H86.7902C87.7775 78.5768 87.3986 75.0694 85.6538 71.5941L85.6466 71.5798L81.1459 62.9642C78.4298 57.5354 78.4322 51.2936 81.1531 45.8662L81.3652 45.4432V45.3388L85.6438 37.2706L85.6538 37.2507C87.3986 33.7755 87.7775 30.268 86.7902 26.7788H87.2926L80.1219 13.0189L74.9422 15.4622L77.1694 0.317019L90.021 8.34929L83.9894 11.2611L89.9689 23.0492Z" fill="#DBA833"/>
</svg>
