<svg width="27" height="27" viewBox="0 0 27 27" fill="none" xmlns="http://www.w3.org/2000/svg">
<path d="M13.5 0.299805C6.21035 0.299805 0.300049 6.2101 0.300049 13.4998C0.300049 15.9761 0.995624 18.2849 2.18208 20.2652L0.418213 26.6998L6.99028 24.9746C8.91234 26.0674 11.1312 26.6998 13.5 26.6998C20.7897 26.6998 26.7001 20.7895 26.7001 13.4998C26.7001 6.2101 20.7897 0.299805 13.5 0.299805ZM8.98188 7.34238C9.19639 7.34238 9.41678 7.34108 9.60708 7.35098C9.84248 7.35648 10.0987 7.37372 10.344 7.91602C10.6355 8.56062 11.2702 10.1777 11.3516 10.3416C11.433 10.5055 11.4907 10.6986 11.3774 10.9131C11.2696 11.1331 11.2135 11.2662 11.0551 11.4609C10.8912 11.6501 10.7116 11.8851 10.5631 12.0281C10.3992 12.192 10.23 12.3717 10.4192 12.6984C10.6084 13.0251 11.2655 14.0961 12.2368 14.9607C13.4853 16.0761 14.5387 16.4189 14.8665 16.5828C15.1943 16.7467 15.3841 16.7212 15.5733 16.5012C15.768 16.2867 16.391 15.5507 16.611 15.2229C16.8255 14.8951 17.0445 14.9518 17.3415 15.0596C17.6429 15.1674 19.2502 15.9591 19.578 16.123C19.9058 16.2869 20.1207 16.3681 20.2032 16.5012C20.2879 16.6387 20.288 17.2932 20.0163 18.0566C19.7446 18.8189 18.4104 19.5561 17.812 19.6078C17.2081 19.6639 16.6445 19.8793 13.8868 18.7936C10.5604 17.4835 8.46258 14.0764 8.29868 13.8564C8.13478 13.6419 6.96665 12.0851 6.96665 10.4791C6.96665 8.8676 7.81157 8.07839 8.10747 7.75059C8.40887 7.42279 8.76188 7.34238 8.98188 7.34238Z" fill="black"/>
</svg>
