<svg width="31" height="31" viewBox="0 0 31 31" fill="none" xmlns="http://www.w3.org/2000/svg">
<path d="M18.3286 18.3282C16.0239 20.7063 15.8562 23.6711 15.6572 30.1663C21.7124 30.1663 25.8924 30.1454 28.0505 28.0502C30.1458 25.8921 30.1667 21.513 30.1667 15.6568C23.6715 15.8663 20.7067 16.0235 18.3286 18.3282ZM0.833374 15.6568C0.833374 21.513 0.854326 25.8921 2.94956 28.0502C5.10766 30.1454 9.28766 30.1663 15.3429 30.1663C15.1334 23.6711 14.9762 20.7063 12.6715 18.3282C10.2934 16.0235 7.32861 15.8559 0.833374 15.6568ZM15.3429 0.833008C9.29814 0.833008 5.10766 0.85396 2.94956 2.9492C0.854326 5.10729 0.833374 9.48634 0.833374 15.3425C7.32861 15.133 10.2934 14.9759 12.6715 12.6711C14.9762 10.293 15.1439 7.32825 15.3429 0.833008ZM18.3286 12.6711C16.0239 10.293 15.8562 7.32825 15.6572 0.833008C21.7124 0.833008 25.8924 0.85396 28.0505 2.9492C30.1458 5.10729 30.1667 9.48634 30.1667 15.3425C23.6715 15.133 20.7067 14.9759 18.3286 12.6711Z" fill="black"/>
</svg>
