<svg width="21" height="17" viewBox="0 0 21 17" fill="none" xmlns="http://www.w3.org/2000/svg">
<path fill-rule="evenodd" clip-rule="evenodd" d="M10.5 9.14137L19.5542 4.24709V3.55208C19.5542 2.42597 18.6574 1.52917 17.5312 1.52917H3.46874C2.34263 1.52917 1.44583 2.42597 1.44583 3.55208V4.24709L10.5 9.14137ZM10.2237 10.3138L1.44583 5.5685V13.4479C1.44583 14.574 2.34263 15.4708 3.46874 15.4708H17.5312C18.6574 15.4708 19.5542 14.574 19.5542 13.4479V5.5685L10.7762 10.3138C10.6913 10.3596 10.5964 10.3836 10.5 10.3836C10.4036 10.3836 10.3086 10.3596 10.2237 10.3138ZM0.283325 3.55208C0.283325 1.80215 1.71881 0.366665 3.46874 0.366665H17.5312C19.2812 0.366665 20.7167 1.80215 20.7167 3.55208V13.4479C20.7167 15.1978 19.2812 16.6333 17.5312 16.6333H3.46874C1.71881 16.6333 0.283325 15.1978 0.283325 13.4479V3.55208Z" fill="#B6B6B6"/>
</svg>
