<svg width="19" height="19" viewBox="0 0 19 19" fill="none" xmlns="http://www.w3.org/2000/svg">
<path d="M4.22171 0.15625C3.84548 0.15625 3.47488 0.291016 3.16604 0.538086L3.12112 0.560547L3.09866 0.583008L0.852564 2.89648L0.875025 2.91895C0.181544 3.55908 -0.0318352 4.51648 0.26858 5.34473C0.271387 5.35034 0.265773 5.36157 0.26858 5.36719C0.877833 7.11072 2.43606 10.477 5.47952 13.5205C8.53421 16.5752 11.9455 18.0717 13.6328 18.7314H13.6553C14.5285 19.0234 15.4746 18.8157 16.1485 18.2373L18.417 15.9687C19.0122 15.3735 19.0122 14.3403 18.417 13.7451L15.4971 10.8252L15.4746 10.7803C14.8794 10.1851 13.8238 10.1851 13.2285 10.7803L11.791 12.2178C11.2716 11.9679 10.0335 11.3278 8.84866 10.1963C7.67227 9.07324 7.07144 7.78174 6.84964 7.27637L8.28714 5.83887C8.89077 5.23523 8.902 4.2301 8.26467 3.6377L8.28714 3.61523L8.21975 3.54785L5.34475 0.583008L5.32229 0.560547L5.27737 0.538086C4.96853 0.291016 4.59793 0.15625 4.22171 0.15625ZM4.22171 1.59375C4.27505 1.59375 4.3284 1.61902 4.37893 1.66113L7.25393 4.60352L7.32131 4.6709C7.3157 4.66528 7.36343 4.74109 7.27639 4.82812L5.47952 6.625L5.1426 6.93945L5.29983 7.38867C5.29983 7.38867 6.12527 9.59827 7.86038 11.252L8.0176 11.3867C9.68814 12.9113 11.6563 13.7451 11.6563 13.7451L12.1055 13.9473L14.2393 11.8135C14.3628 11.6899 14.3404 11.6899 14.4639 11.8135L17.4063 14.7559C17.5298 14.8794 17.5298 14.8345 17.4063 14.958L15.2051 17.1592C14.8738 17.4427 14.5229 17.5017 14.1045 17.3613C12.4761 16.7212 9.31192 15.3314 6.49026 12.5098C3.64614 9.66565 2.16091 6.4397 1.61624 4.87305C1.50674 4.58105 1.58535 4.14868 1.84085 3.92969L1.88577 3.88477L4.06448 1.66113C4.11502 1.61902 4.16836 1.59375 4.22171 1.59375Z" fill="#B6B6B6"/>
</svg>
