<svg width="29" height="26" viewBox="0 0 29 26" fill="none" xmlns="http://www.w3.org/2000/svg">
<path d="M27.6049 1.06163C27.1399 0.66731 26.4096 0.61089 25.6544 0.91407H25.6532C24.859 1.23275 3.17136 10.5352 2.28848 10.9153C2.1279 10.9711 0.725459 11.4944 0.869919 12.66C0.998879 13.7109 2.12604 14.1461 2.26368 14.1963L7.77734 16.0842C8.14314 17.3019 9.49164 21.7944 9.78986 22.7542C9.97586 23.3525 10.279 24.1387 10.8104 24.3005C11.2766 24.4803 11.7404 24.316 12.0405 24.0804L15.4114 20.9537L20.8531 25.1976L20.9827 25.2751C21.3522 25.4388 21.7063 25.5206 22.0442 25.5206C22.3052 25.5206 22.5557 25.4717 22.795 25.3737C23.6103 25.0389 23.9364 24.262 23.9705 24.174L28.0352 3.04625C28.2832 1.91785 27.9385 1.34373 27.6049 1.06163ZM12.64 16.8394L10.78 21.7994L8.92 15.5994L23.18 5.05939L12.64 16.8394Z" fill="black"/>
</svg>
