<svg width="17" height="19" viewBox="0 0 17 19" fill="none" xmlns="http://www.w3.org/2000/svg">
<path fill-rule="evenodd" clip-rule="evenodd" d="M14.5114 1.93349L14.5115 1.93343L16.737 4.16781L14.5114 1.93349ZM15.091 4.65657L15.6706 5.23844L15.6706 5.23841L15.091 4.65657ZM3.80103 7.47282L3.80109 7.47276L6.60614 10.2891L3.80103 7.47282ZM13.2704 4.58194L14.2348 3.58437L13.6568 3.00407L14.5115 2.14598L16.5253 4.16781L15.6706 5.02589L15.0926 4.4456L14.0989 5.41391L14.1874 5.52049C15.3457 6.91477 16.0538 8.71123 16.0538 10.6615C16.0538 15.0945 12.4575 18.7042 8.04347 18.7042C3.62942 18.7042 0.0331421 15.0945 0.0331421 10.6615C0.0331421 6.22844 3.62942 2.61875 8.04347 2.61875C9.98551 2.61875 11.7746 3.32949 13.1633 4.49228L13.2704 4.58194ZM6.70977 10.6615C6.70977 10.5447 6.723 10.4328 6.75105 10.3278L6.77334 10.2444L4.01274 7.47282L4.86743 6.61473L7.62762 9.38587L7.71156 9.36326C7.81598 9.33513 7.92729 9.32187 8.04347 9.32187C8.78016 9.32187 9.37716 9.92039 9.37716 10.6615C9.37716 11.4025 8.78016 12.001 8.04347 12.001C7.30678 12.001 6.70977 11.4025 6.70977 10.6615ZM10.119 0.384375V1.57396H5.96792V0.384375H10.119ZM14.8701 10.6615C14.8701 6.86976 11.8216 3.80833 8.04347 3.80833C4.26532 3.80833 1.21684 6.86976 1.21684 10.6615C1.21684 14.4532 4.26532 17.5146 8.04347 17.5146C11.8216 17.5146 14.8701 14.4532 14.8701 10.6615Z" fill="#B6B6B6"/>
</svg>
