<svg width="29" height="29" viewBox="0 0 29 29" fill="none" xmlns="http://www.w3.org/2000/svg">
<path d="M25.06 0.639648H3.94001C2.11841 0.639648 0.640015 2.11805 0.640015 3.93965V25.0596C0.640015 26.8812 2.11841 28.3596 3.94001 28.3596H25.06C26.8816 28.3596 28.36 26.8812 28.36 25.0596V3.93965C28.36 2.11805 26.8816 0.639648 25.06 0.639648ZM22.8952 19.7796L20.4334 19.773C20.4334 19.773 20.3806 19.7796 20.2948 19.7796C20.0968 19.7796 19.6876 19.7268 19.2058 19.3968C18.3412 18.7962 17.5162 17.3046 16.8628 17.3046C16.8166 17.3046 16.777 17.3112 16.7374 17.3244C16.1698 17.5026 15.9982 18.0702 15.9982 18.7632C15.9982 19.0074 15.8266 19.1196 15.3646 19.1196H14.0908C12.6652 19.1196 11.2858 19.0866 9.73481 17.3904C7.45121 14.889 5.31281 10.4406 5.31281 10.4406C5.31281 10.4406 5.19401 10.1832 5.31941 10.0314C5.43821 9.89285 5.71541 9.87965 5.82101 9.87965C5.84741 9.87965 5.86061 9.87965 5.86061 9.87965H8.50061C8.50061 9.87965 8.74481 9.92585 8.92301 10.0578C9.07481 10.17 9.15401 10.3746 9.15401 10.3746C9.15401 10.3746 9.60281 11.2458 10.1638 12.2292C11.1076 13.8528 11.6158 14.394 11.9788 14.394C12.0382 14.394 12.0976 14.3808 12.157 14.3478C12.6982 14.0508 12.5398 11.6484 12.5398 11.6484C12.5398 11.6484 12.5464 10.7772 12.2626 10.3944C12.0448 10.0908 11.629 10.005 11.4442 9.97865C11.299 9.95885 11.5366 9.61565 11.8534 9.45725C12.2626 9.25925 12.9424 9.21965 13.7608 9.21965H14.1568C14.929 9.23285 14.9488 9.31205 15.2524 9.38465C16.1632 9.60245 15.853 10.4538 15.853 12.4932C15.853 13.1466 15.7342 14.064 16.2028 14.3742C16.2358 14.394 16.282 14.4072 16.3414 14.4072C16.645 14.4072 17.2984 14.0178 18.3412 12.2556C18.922 11.2524 19.3708 10.2558 19.3708 10.2558C19.3708 10.2558 19.4698 10.0776 19.6216 9.98525C19.7668 9.89945 19.7668 9.89945 19.9582 9.89945H19.978C20.1892 9.89945 22.288 9.87965 22.75 9.87965H22.8028C23.245 9.87965 23.6476 9.88625 23.7202 10.1568C23.8258 10.566 23.3968 11.2986 22.2682 12.8166C20.407 15.3048 20.1958 15.12 21.7402 16.5588C23.2186 17.9316 23.5222 18.5982 23.575 18.684C24.1888 19.7004 22.8952 19.7796 22.8952 19.7796Z" fill="black"/>
</svg>
