<?xml version="1.0" standalone="no"?>
<!DOCTYPE svg PUBLIC "-//W3C//DTD SVG 20010904//EN"
 "http://www.w3.org/TR/2001/REC-SVG-20010904/DTD/svg10.dtd">
<svg version="1.0" xmlns="http://www.w3.org/2000/svg"
 width="512.000000pt" height="512.000000pt" viewBox="0 0 512.000000 512.000000"
 preserveAspectRatio="xMidYMid meet">
<metadata>
Created by potrace 1.14, written by Peter Selinger 2001-2017
</metadata>
<g transform="translate(0.000000,512.000000) scale(0.100000,-0.100000)"
fill="#000000" stroke="none">
<path d="M4560 4640 c-153 -43 -224 -204 -152 -342 l29 -54 -42 -89 c-23 -50
-66 -139 -95 -200 -29 -60 -69 -146 -90 -190 -21 -44 -61 -129 -90 -190 -29
-60 -65 -137 -80 -170 -15 -33 -58 -123 -95 -200 -37 -77 -81 -169 -98 -205
l-30 -65 -47 140 c-26 77 -50 147 -52 155 -3 8 -27 83 -52 165 -71 228 -85
258 -126 271 -63 21 -76 9 -261 -237 -165 -218 -174 -228 -191 -211 -10 9 -94
123 -187 252 -94 129 -174 240 -178 245 -5 6 -64 88 -133 183 -271 374 -276
379 -338 356 -15 -6 -126 -80 -247 -166 -704 -497 -760 -535 -770 -523 -36 43
-51 45 -292 45 -149 0 -241 -4 -256 -11 -38 -17 -49 -49 -49 -141 l-1 -85
-155 -2 c-85 -1 -163 -6 -173 -12 -28 -14 -41 -47 -41 -99 0 -81 29 -111 111
-115 l46 -2 2 -241 c1 -133 -1 -242 -5 -243 -4 -1 -26 -3 -50 -4 -24 -2 -54
-11 -67 -19 -22 -15 -43 -58 -39 -83 1 -7 2 -26 3 -42 2 -51 31 -75 97 -81
l59 -5 0 -489 0 -489 -48 -3 c-84 -7 -109 -32 -110 -113 -1 -81 31 -113 112
-115 l46 -1 2 -241 2 -242 -58 -4 c-83 -6 -115 -43 -100 -121 9 -52 36 -87 87
-113 l42 -22 973 2 c534 2 981 6 992 11 11 4 29 16 41 27 18 16 26 17 50 8 16
-6 69 -17 119 -25 489 -75 950 241 1055 722 21 97 25 289 8 363 -51 218 -133
369 -272 503 -121 116 -259 191 -436 238 -69 18 -110 22 -215 22 -138 -1 -225
-18 -345 -66 l-60 -25 0 89 0 89 41 0 c107 0 158 127 78 194 -23 19 -42 26
-75 26 l-44 0 0 48 c-1 77 -1 301 -1 378 1 61 4 71 19 71 56 0 75 6 102 31 54
49 47 135 -14 175 -22 15 -84 17 -568 19 l-542 3 74 53 c41 29 129 91 195 138
259 182 326 229 497 349 97 69 181 125 185 125 4 0 181 -239 393 -531 300
-415 392 -534 417 -545 53 -23 83 -4 160 99 37 51 70 94 73 97 3 3 41 52 84
110 43 58 82 109 86 113 5 5 47 -112 95 -260 144 -445 156 -477 174 -496 9
-10 34 -20 54 -24 55 -8 82 24 156 187 16 36 55 119 86 185 32 66 74 156 95
200 21 44 63 134 94 200 32 66 70 147 86 180 15 33 56 119 90 190 34 72 77
162 95 200 18 39 49 104 68 145 l37 76 54 11 c228 48 270 339 64 444 -43 22
-116 31 -158 19z"/>
</g>
</svg>
