<svg width="58" height="605" viewBox="0 0 58 605" fill="none" xmlns="http://www.w3.org/2000/svg">
<path opacity="0.3" d="M31.5 5C31.5 3.61929 30.3807 2.5 29 2.5C27.6193 2.5 26.5 3.61929 26.5 5L31.5 5ZM29 605L43.4338 580L14.5663 580L29 605ZM26.5 15C26.5 16.3807 27.6193 17.5 29 17.5C30.3807 17.5 31.5 16.3807 31.5 15L26.5 15ZM31.5 35C31.5 33.6193 30.3807 32.5 29 32.5C27.6193 32.5 26.5 33.6193 26.5 35L31.5 35ZM26.5 55C26.5 56.3807 27.6193 57.5 29 57.5C30.3807 57.5 31.5 56.3807 31.5 55L26.5 55ZM31.5 75C31.5 73.6193 30.3807 72.5 29 72.5C27.6193 72.5 26.5 73.6193 26.5 75L31.5 75ZM26.5 95C26.5 96.3807 27.6193 97.5 29 97.5C30.3807 97.5 31.5 96.3807 31.5 95L26.5 95ZM31.5 115C31.5 113.619 30.3807 112.5 29 112.5C27.6193 112.5 26.5 113.619 26.5 115L31.5 115ZM26.5 135C26.5 136.381 27.6193 137.5 29 137.5C30.3807 137.5 31.5 136.381 31.5 135L26.5 135ZM31.5 155C31.5 153.619 30.3807 152.5 29 152.5C27.6193 152.5 26.5 153.619 26.5 155L31.5 155ZM26.5 175C26.5 176.381 27.6193 177.5 29 177.5C30.3807 177.5 31.5 176.381 31.5 175L26.5 175ZM31.5 195C31.5 193.619 30.3807 192.5 29 192.5C27.6193 192.5 26.5 193.619 26.5 195L31.5 195ZM26.5 215C26.5 216.381 27.6193 217.5 29 217.5C30.3807 217.5 31.5 216.381 31.5 215L26.5 215ZM31.5 235C31.5 233.619 30.3807 232.5 29 232.5C27.6193 232.5 26.5 233.619 26.5 235L31.5 235ZM26.5 255C26.5 256.381 27.6193 257.5 29 257.5C30.3807 257.5 31.5 256.381 31.5 255L26.5 255ZM31.5 275C31.5 273.619 30.3807 272.5 29 272.5C27.6193 272.5 26.5 273.619 26.5 275L31.5 275ZM26.5 295C26.5 296.381 27.6193 297.5 29 297.5C30.3807 297.5 31.5 296.381 31.5 295L26.5 295ZM31.5 315C31.5 313.619 30.3807 312.5 29 312.5C27.6193 312.5 26.5 313.619 26.5 315L31.5 315ZM26.5 335C26.5 336.381 27.6193 337.5 29 337.5C30.3807 337.5 31.5 336.381 31.5 335L26.5 335ZM31.5 355C31.5 353.619 30.3807 352.5 29 352.5C27.6193 352.5 26.5 353.619 26.5 355L31.5 355ZM26.5 375C26.5 376.381 27.6193 377.5 29 377.5C30.3807 377.5 31.5 376.381 31.5 375L26.5 375ZM31.5 395C31.5 393.619 30.3807 392.5 29 392.5C27.6193 392.5 26.5 393.619 26.5 395L31.5 395ZM26.5 415C26.5 416.381 27.6193 417.5 29 417.5C30.3807 417.5 31.5 416.381 31.5 415L26.5 415ZM31.5 435C31.5 433.619 30.3807 432.5 29 432.5C27.6193 432.5 26.5 433.619 26.5 435L31.5 435ZM26.5 455C26.5 456.381 27.6193 457.5 29 457.5C30.3807 457.5 31.5 456.381 31.5 455L26.5 455ZM31.5 475C31.5 473.619 30.3807 472.5 29 472.5C27.6193 472.5 26.5 473.619 26.5 475L31.5 475ZM26.5 495C26.5 496.381 27.6193 497.5 29 497.5C30.3807 497.5 31.5 496.381 31.5 495L26.5 495ZM31.5 515C31.5 513.619 30.3807 512.5 29 512.5C27.6193 512.5 26.5 513.619 26.5 515L31.5 515ZM26.5 535C26.5 536.381 27.6193 537.5 29 537.5C30.3807 537.5 31.5 536.381 31.5 535L26.5 535ZM31.5 555C31.5 553.619 30.3807 552.5 29 552.5C27.6193 552.5 26.5 553.619 26.5 555L31.5 555ZM26.5 575C26.5 576.381 27.6193 577.5 29 577.5C30.3807 577.5 31.5 576.381 31.5 575L26.5 575ZM31.5 595C31.5 593.619 30.3807 592.5 29 592.5C27.6193 592.5 26.5 593.619 26.5 595L31.5 595ZM26.5 5L26.5 15L31.5 15L31.5 5L26.5 5ZM26.5 35L26.5 55L31.5 55L31.5 35L26.5 35ZM26.5 75L26.5 95L31.5 95L31.5 75L26.5 75ZM26.5 115L26.5 135L31.5 135L31.5 115L26.5 115ZM26.5 155L26.5 175L31.5 175L31.5 155L26.5 155ZM26.5 195L26.5 215L31.5 215L31.5 195L26.5 195ZM26.5 235L26.5 255L31.5 255L31.5 235L26.5 235ZM26.5 275L26.5 295L31.5 295L31.5 275L26.5 275ZM26.5 315L26.5 335L31.5 335L31.5 315L26.5 315ZM26.5 355L26.5 375L31.5 375L31.5 355L26.5 355ZM26.5 395L26.5 415L31.5 415L31.5 395L26.5 395ZM26.5 435L26.5 455L31.5 455L31.5 435L26.5 435ZM26.5 475L26.5 495L31.5 495L31.5 475L26.5 475ZM26.5 515L26.5 535L31.5 535L31.5 515L26.5 515ZM26.5 555L26.5 575L31.5 575L31.5 555L26.5 555ZM34 5C34 2.23858 31.7614 -1.20706e-07 29 0C26.2386 1.20706e-07 24 2.23858 24 5L34 5ZM29 605L57.8675 555L0.13251 555L29 605ZM24 15C24 17.7614 26.2386 20 29 20C31.7614 20 34 17.7614 34 15L24 15ZM34 35C34 32.2386 31.7614 30 29 30C26.2386 30 24 32.2386 24 35L34 35ZM24 55C24 57.7614 26.2386 60 29 60C31.7614 60 34 57.7614 34 55L24 55ZM34 75C34 72.2386 31.7614 70 29 70C26.2386 70 24 72.2386 24 75L34 75ZM24 95C24 97.7614 26.2386 100 29 100C31.7614 100 34 97.7614 34 95L24 95ZM34 115C34 112.239 31.7614 110 29 110C26.2386 110 24 112.239 24 115L34 115ZM24 135C24 137.761 26.2386 140 29 140C31.7614 140 34 137.761 34 135L24 135ZM34 155C34 152.239 31.7614 150 29 150C26.2386 150 24 152.239 24 155L34 155ZM24 175C24 177.761 26.2386 180 29 180C31.7614 180 34 177.761 34 175L24 175ZM34 195C34 192.239 31.7614 190 29 190C26.2386 190 24 192.239 24 195L34 195ZM24 215C24 217.761 26.2386 220 29 220C31.7614 220 34 217.761 34 215L24 215ZM34 235C34 232.239 31.7614 230 29 230C26.2386 230 24 232.239 24 235L34 235ZM24 255C24 257.761 26.2386 260 29 260C31.7614 260 34 257.761 34 255L24 255ZM34 275C34 272.239 31.7614 270 29 270C26.2386 270 24 272.239 24 275L34 275ZM24 295C24 297.761 26.2386 300 29 300C31.7614 300 34 297.761 34 295L24 295ZM34 315C34 312.239 31.7614 310 29 310C26.2386 310 24 312.239 24 315L34 315ZM24 335C24 337.761 26.2386 340 29 340C31.7614 340 34 337.761 34 335L24 335ZM34 355C34 352.239 31.7614 350 29 350C26.2386 350 24 352.239 24 355L34 355ZM24 375C24 377.761 26.2386 380 29 380C31.7614 380 34 377.761 34 375L24 375ZM34 395C34 392.239 31.7614 390 29 390C26.2386 390 24 392.239 24 395L34 395ZM24 415C24 417.761 26.2386 420 29 420C31.7614 420 34 417.761 34 415L24 415ZM34 435C34 432.239 31.7614 430 29 430C26.2386 430 24 432.239 24 435L34 435ZM24 455C24 457.761 26.2386 460 29 460C31.7614 460 34 457.761 34 455L24 455ZM34 475C34 472.239 31.7614 470 29 470C26.2386 470 24 472.239 24 475L34 475ZM24 495C24 497.761 26.2386 500 29 500C31.7614 500 34 497.761 34 495L24 495ZM34 515C34 512.239 31.7614 510 29 510C26.2386 510 24 512.239 24 515L34 515ZM24 535C24 537.761 26.2386 540 29 540C31.7614 540 34 537.761 34 535L24 535ZM34 555C34 552.239 31.7614 550 29 550C26.2386 550 24 552.239 24 555L34 555ZM24 575C24 577.761 26.2386 580 29 580C31.7614 580 34 577.761 34 575L24 575ZM34 595C34 592.239 31.7614 590 29 590C26.2386 590 24 592.239 24 595L34 595ZM24 5L24 15L34 15L34 5L24 5ZM24 35L24 55L34 55L34 35L24 35ZM24 75L24 95L34 95L34 75L24 75ZM24 115L24 135L34 135L34 115L24 115ZM24 155L24 175L34 175L34 155L24 155ZM24 195L24 215L34 215L34 195L24 195ZM24 235L24 255L34 255L34 235L24 235ZM24 275L24 295L34 295L34 275L24 275ZM24 315L24 335L34 335L34 315L24 315ZM24 355L24 375L34 375L34 355L24 355ZM24 395L24 415L34 415L34 395L24 395ZM24 435L24 455L34 455L34 435L24 435ZM24 475L24 495L34 495L34 475L24 475ZM24 515L24 535L34 535L34 515L24 515ZM24 555L24 575L34 575L34 555L24 555Z" fill="white"/>
</svg>
